<svg width="166" height="116" viewBox="0 0 166 116" fill="none" xmlns="http://www.w3.org/2000/svg">
<path d="M84.9922 113.867C115.914 113.867 140.98 88.8004 140.98 57.8789C140.98 26.9574 115.914 1.89062 84.9922 1.89062C54.0707 1.89062 29.0039 26.9574 29.0039 57.8789C29.0039 88.8004 54.0707 113.867 84.9922 113.867Z" fill="url(#paint0_linear_211_1731)"/>
<path d="M17.705 0.34375C17.53 0.34375 17.3568 0.378206 17.1952 0.445146C17.0336 0.512087 16.8868 0.610205 16.7631 0.733895C16.6394 0.857586 16.5413 1.00443 16.4743 1.16603C16.4074 1.32764 16.3729 1.50086 16.3729 1.67578V28.4023H13.1503V1.67578C13.0935 1.35814 12.9267 1.07061 12.6793 0.863497C12.4319 0.656387 12.1194 0.5429 11.7968 0.5429C11.4741 0.5429 11.1617 0.656387 10.9142 0.863497C10.6668 1.07061 10.5001 1.35814 10.4433 1.67578V28.4023H8.037V1.67578C8.037 1.32251 7.89666 0.983699 7.64686 0.733895C7.39705 0.484091 7.05824 0.34375 6.70497 0.34375C6.35169 0.34375 6.01288 0.484091 5.76308 0.733895C5.51327 0.983699 5.37294 1.32251 5.37294 1.67578V28.4023H2.66591V1.67578C2.66591 1.32251 2.52557 0.983699 2.27576 0.733895C2.02596 0.484091 1.68715 0.34375 1.33387 0.34375C0.980596 0.34375 0.641789 0.484091 0.391985 0.733895C0.142181 0.983699 0.00184374 1.32251 0.00184372 1.67578V28.6602C-0.0095528 28.8621 0.0320327 29.0635 0.122479 29.2444C0.212926 29.4253 0.349091 29.5794 0.517468 29.6914L6.53309 45.2031L2.66591 111.59C3.4692 112.625 4.49854 113.463 5.67522 114.039C6.85189 114.615 8.14476 114.915 9.45497 114.915C10.7652 114.915 12.058 114.615 13.2347 114.039C14.4114 113.463 15.4407 112.625 16.244 111.59L13.0643 45.2031L18.4784 29.6484C18.7461 29.3884 18.9005 29.0333 18.9081 28.6602V1.67578C18.9097 1.34375 18.7871 1.0231 18.5646 0.776689C18.342 0.530281 18.0355 0.375879 17.705 0.34375Z" fill="url(#paint1_linear_211_1731)"/>
<path d="M162.939 60.7578V0H158.299C145.408 5.84375 154.26 59.2109 154.26 59.2109L151.209 112.32C160.834 120.914 165.131 111.117 165.131 111.117L162.939 60.7578Z" fill="url(#paint2_linear_211_1731)"/>
<defs>
<linearGradient id="paint0_linear_211_1731" x1="4.02738" y1="56.7254" x2="161.915" y2="58.06" gradientUnits="userSpaceOnUse">
<stop stop-color="#F2003C"/>
<stop offset="1" stop-color="#F7F052"/>
</linearGradient>
<linearGradient id="paint1_linear_211_1731" x1="-4.21748" y1="56.449" x2="22.445" y2="56.4862" gradientUnits="userSpaceOnUse">
<stop stop-color="#F2003C"/>
<stop offset="1" stop-color="#F7F052"/>
</linearGradient>
<linearGradient id="paint2_linear_211_1731" x1="148.104" y1="56.7321" x2="167.735" y2="56.752" gradientUnits="userSpaceOnUse">
<stop stop-color="#F2003C"/>
<stop offset="1" stop-color="#F7F052"/>
</linearGradient>
</defs>
</svg>
